# Havok compressed collision mesh converted to OBJ
# Source geometry: packedVertices + primitives
# This OBJ does not use AABB/domain data as mesh geometry
# Objects: 1
# Sections: 1
# Vertices: 121
# Quad primitives: 100
o 33_00_pPlane10_object5_object7
# Object index: 0
# Object vertices: 121
# Object quad primitives: 100
v -2500 0 -999.50987
v -2500 0 -500.97569
v -1999.267 0 -500.97569
v -1999.267 0 -999.50987
v -1500.9766 0 -500.97569
v -1500.9766 0 -999.50987
v -2500 0 2.44608
v -1999.267 0 2.44608
v -1500.9766 0 2.44608
v -1999.267 0 -1498.04405
v -1500.9766 0 -1498.04405
v -1000.2436 0 -999.50987
v -1000.2436 0 -1498.04405
v -2500 0 -1498.04405
v -499.5106 0 500.98026
v -499.5106 0 2.44608
v -1000.2436 0 2.44608
v -1000.2436 0 500.98026
v -1000.2436 0 -500.97569
v -499.5106 0 -500.97569
v -1500.9766 0 500.98026
v -499.5106 0 -999.50987
v 1.2224 0 -500.97569
v 1.2224 0 -999.50987
v 1.2224 0 2.44608
v -1999.267 0 -2001.46582
v -1999.267 0 -2500
v -2500 0 -2500
v -2500 0 -2001.46582
v -1500.9766 0 -2001.46582
v -1500.9766 0 -2500
v -1000.2436 0 -2001.46582
v -1000.2436 0 -2500
v -499.5106 0 -2001.46582
v -499.5106 0 -2500
v 1.2224 0 -1498.04405
v -499.5106 0 -1498.04405
v 1.2224 0 -2001.46582
v 1.2224 0 -2500
v -2500 0 1498.04862
v -2500 0 2001.47039
v -1999.267 0 2001.47039
v -1999.267 0 1498.04862
v -1500.9766 0 2001.47039
v -1500.9766 0 1498.04862
v -1500.9766 0 999.51444
v -1999.267 0 999.51444
v -2500 0 999.51444
v -1999.267 0 2500.00457
v -2500 0 2500.00457
v -1500.9766 0 2500.00457
v -2500 0 500.98026
v -1999.267 0 500.98026
v -1000.2436 0 999.51444
v -1000.2436 0 1498.04862
v -499.5106 0 1498.04862
v -499.5106 0 999.51444
v -1000.2436 0 2001.47039
v -499.5106 0 2001.47039
v -1000.2436 0 2500.00457
v -499.5106 0 2500.00457
v 1000.2458 0 -500.97569
v 1000.2458 0 2.44608
v 1500.9788 0 2.44608
v 1500.9788 0 -500.97569
v 1500.9788 0 500.98026
v 1000.2458 0 500.98026
v 499.5128 0 -500.97569
v 499.5128 0 2.44608
v 499.5128 0 500.98026
v 1999.2692 0 500.98026
v 1999.2692 0 2.44608
v 2500.0022 0 500.98026
v 2500.0022 0 2.44608
v 1000.2458 0 999.51444
v 1500.9788 0 999.51444
v 1999.2692 0 999.51444
v 2500.0022 0 999.51444
v 1999.2692 0 1498.04862
v 2500.0022 0 1498.04862
v 1500.9788 0 1498.04862
v 499.5128 0 999.51444
v 1.2224 0 500.98026
v 1.2224 0 999.51444
v 1.2224 0 1498.04862
v 1.2224 0 2001.47039
v 499.5128 0 2001.47039
v 499.5128 0 1498.04862
v 1000.2458 0 2001.47039
v 1000.2458 0 1498.04862
v 499.5128 0 2500.00457
v 1.2224 0 2500.00457
v 1000.2458 0 2500.00457
v 1500.9788 0 2001.47039
v 1500.9788 0 2500.00457
v 1999.2692 0 2001.47039
v 2500.0022 0 2001.47039
v 1999.2692 0 2500.00457
v 2500.0022 0 2500.00457
v 1500.9788 0 -999.50987
v 1000.2458 0 -999.50987
v 499.5128 0 -999.50987
v 1500.9788 0 -1498.04405
v 1000.2458 0 -1498.04405
v 499.5128 0 -1498.04405
v 1999.2692 0 -999.50987
v 1999.2692 0 -1498.04405
v 1999.2692 0 -500.97569
v 2500.0022 0 -500.97569
v 2500.0022 0 -999.50987
v 2500.0022 0 -1498.04405
v 1999.2692 0 -2001.46582
v 1999.2692 0 -2500
v 1500.9788 0 -2500
v 1500.9788 0 -2001.46582
v 1000.2458 0 -2001.46582
v 1000.2458 0 -2500
v 2500.0022 0 -2001.46582
v 2500.0022 0 -2500
v 499.5128 0 -2001.46582
v 499.5128 0 -2500
g 33_00_pPlane10_object5_object7_section_00_none
# Section index: 0
# Shared vertex decode mode: none
f 84 85 88 82
f 86 92 91 87
f 87 91 93 89
f 87 88 85 86
f 89 90 88 87
f 82 88 90 75
f 92 86 59 61
f 86 85 56 59
f 81 94 96 79
f 75 90 81 76
f 90 89 94 81
f 95 94 89 93
f 85 84 57 56
f 71 77 78 73
f 77 79 80 78
f 76 81 79 77
f 73 74 72 71
f 67 75 76 66
f 66 76 77 71
f 25 83 70 69
f 83 25 16 15
f 84 83 15 57
f 70 82 75 67
f 83 84 82 70
f 69 68 23 25
f 107 112 115 103
f 103 115 116 104
f 117 116 115 114
f 74 109 108 72
f 72 108 65 64
f 114 115 112 113
f 105 120 38 36
f 121 120 116 117
f 104 116 120 105
f 118 119 113 112
f 111 118 112 107
f 120 121 39 38
f 110 111 107 106
f 65 100 101 62
f 62 101 102 68
f 100 103 104 101
f 79 96 97 80
f 96 98 99 97
f 98 96 94 95
f 106 107 103 100
f 108 106 100 65
f 109 110 106 108
f 101 104 105 102
f 102 105 36 24
f 68 102 24 23
f 30 31 27 26
f 32 33 31 30
f 34 35 33 32
f 23 24 22 20
f 25 23 20 16
f 28 29 26 27
f 24 36 37 22
f 36 38 34 37
f 38 39 35 34
f 10 26 29 14
f 11 30 26 10
f 13 32 30 11
f 20 22 12 19
f 3 8 9 5
f 6 11 10 4
f 12 13 11 6
f 3 4 1 2
f 5 6 4 3
f 2 7 8 3
f 9 21 18 17
f 17 19 5 9
f 19 12 6 5
f 4 10 14 1
f 17 18 15 16
f 16 20 19 17
f 58 55 45 44
f 55 58 59 56
f 58 60 61 59
f 18 54 57 15
f 55 54 46 45
f 21 46 54 18
f 68 69 63 62
f 69 70 67 63
f 71 72 64 66
f 60 58 44 51
f 64 65 62 63
f 63 67 66 64
f 56 57 54 55
f 44 45 43 42
f 45 46 47 43
f 43 47 48 40
f 22 37 13 12
f 37 34 32 13
f 42 43 40 41
f 8 53 21 9
f 47 53 52 48
f 53 47 46 21
f 41 50 49 42
f 42 49 51 44
f 7 52 53 8
