# hkAabb collision volumes converted to OBJ
# Generated from 2 hkAabb records
# Total vertices: 16
# Total faces: 24

o HkAabbCollisionVolumes

# Vertices
v -0.072385 16.150200 0.673306
v 0.075458 16.150200 0.673306
v 0.075458 16.511499 0.673306
v -0.072385 16.511499 0.673306
v -0.072385 16.150200 1.000639
v 0.075458 16.150200 1.000639
v 0.075458 16.511499 1.000639
v -0.072385 16.511499 1.000639
v -0.075459 16.150200 0.673306
v 0.075458 16.150200 0.673306
v 0.075458 16.511499 0.673306
v -0.075459 16.511499 0.673306
v -0.075459 16.150200 1.000639
v 0.075458 16.150200 1.000639
v 0.075458 16.511499 1.000639
v -0.075459 16.511499 1.000639

# Faces
f 1 2 3
f 1 3 4
f 5 8 7
f 5 7 6
f 1 4 8
f 1 8 5
f 2 6 7
f 2 7 3
f 1 5 6
f 1 6 2
f 4 3 7
f 4 7 8
f 9 10 11
f 9 11 12
f 13 16 15
f 13 15 14
f 9 12 16
f 9 16 13
f 10 14 15
f 10 15 11
f 9 13 14
f 9 14 10
f 12 11 15
f 12 15 16

# End of file
